<svg width="35" height="52" viewBox="0 0 35 52" fill="none" xmlns="http://www.w3.org/2000/svg">
<path d="M4.59538 49.1111C3.3309 49.1111 2.24935 48.6537 1.35075 47.7389C0.452145 46.8241 0.00189579 45.7263 0 44.4456V14.4444C0 13.1618 0.450249 12.064 1.35075 11.1511C2.24935 10.2344 3.32995 9.776 4.59254 9.776H10.7207V4.66556C10.7207 3.38289 11.17 2.28511 12.0686 1.37222C12.9672 0.459333 14.0478 0.00192593 15.3104 0H19.6896C20.9522 0 22.0328 0.457407 22.9314 1.37222C23.83 2.28704 24.2803 3.38481 24.2822 4.66556V9.77889H30.4075C31.6701 9.77889 32.7507 10.2353 33.6493 11.1482C34.5498 12.063 35 13.1618 35 14.4444V44.4456C35 45.7282 34.5498 46.826 33.6493 47.7389C32.7488 48.6518 31.6691 49.1092 30.4103 49.1111V49.7756C30.4103 50.3726 30.1923 50.8926 29.7563 51.3356C29.3202 51.7785 28.8084 52 28.2207 52C27.633 52 27.1211 51.7785 26.6851 51.3356C26.2491 50.8926 26.032 50.3726 26.0339 49.7756V49.1111H8.96896V49.7756C8.96896 50.3726 8.75095 50.8926 8.31492 51.3356C7.87889 51.7785 7.36702 52 6.77933 52C6.19164 52 5.68072 51.7785 5.24659 51.3356C4.81245 50.8926 4.59444 50.3726 4.59254 49.7756L4.59538 49.1111ZM4.59538 46.2222H30.4075C30.9174 46.2222 31.3364 46.0556 31.6644 45.7224C31.9923 45.3893 32.1563 44.9636 32.1563 44.4456V14.4444C32.1563 13.9244 31.9923 13.4988 31.6644 13.1676C31.3364 12.8344 30.9165 12.6678 30.4046 12.6678H4.59538C4.08352 12.6678 3.66361 12.8344 3.33564 13.1676C3.00766 13.5007 2.84368 13.9264 2.84368 14.4444V44.4456C2.84368 44.9636 3.00766 45.3893 3.33564 45.7224C3.66361 46.0556 4.08352 46.2222 4.59538 46.2222ZM10.7207 41.1089H13.5644V17.7811H10.7207V41.1089ZM21.4385 41.1089H24.2822V17.7811H21.4385V41.1089ZM13.5615 9.776H21.4385V4.66556C21.4385 4.14748 21.2745 3.72185 20.9465 3.38867C20.6186 3.05548 20.1987 2.88889 19.6868 2.88889H15.3132C14.8013 2.88889 14.3824 3.05548 14.0563 3.38867C13.7283 3.72185 13.5644 4.14748 13.5644 4.66556L13.5615 9.776Z" fill="#ED9C00"/>
</svg>
