<svg width="52" height="54" viewBox="0 0 52 54" fill="none" xmlns="http://www.w3.org/2000/svg">
<path d="M0 50.2759H52V54H0V50.2759ZM41.7857 18.6207H11.1429C10.1578 18.6207 9.21302 19.0131 8.51646 19.7115C7.8199 20.4099 7.42857 21.3571 7.42857 22.3448V37.2414C7.43152 39.7097 8.41078 42.0761 10.1516 43.8215C11.8923 45.5669 14.2525 46.5488 16.7143 46.5517H31.5714C34.0332 46.5488 36.3934 45.5669 38.1342 43.8215C39.8749 42.0761 40.8542 39.7097 40.8571 37.2414V35.3793H41.7857C44.0022 35.3793 46.1278 34.4965 47.6951 32.9251C49.2624 31.3536 50.1429 29.2223 50.1429 27C50.1429 24.7777 49.2624 22.6464 47.6951 21.0749C46.1278 19.5035 44.0022 18.6207 41.7857 18.6207ZM37.1429 37.2414C37.1414 38.7225 36.5539 40.1425 35.5094 41.1898C34.4649 42.2371 33.0486 42.8261 31.5714 42.8276H16.7143C15.2371 42.8261 13.8208 42.2371 12.7763 41.1898C11.7318 40.1425 11.1443 38.7225 11.1429 37.2414V22.3448H37.1429V37.2414ZM41.7857 31.6552H40.8571V22.3448H41.7857C43.0171 22.3448 44.198 22.8353 45.0687 23.7083C45.9394 24.5813 46.4286 25.7654 46.4286 27C46.4286 28.2346 45.9394 29.4187 45.0687 30.2917C44.198 31.1647 43.0171 31.6552 41.7857 31.6552ZM31.5714 14.8966H27.8571V14.6247C27.8594 13.9327 27.6684 13.2539 27.3057 12.6651C26.943 12.0764 26.4232 11.6012 25.805 11.2934L20.8186 8.79641C19.5822 8.18092 18.5425 7.2306 17.8171 6.05309C17.0917 4.87558 16.7097 3.51794 16.7143 2.13393V0H20.4286V2.13393C20.4264 2.82613 20.6177 3.50509 20.9808 4.09386C21.3438 4.68264 21.8641 5.15768 22.4826 5.46517L27.4653 7.96221C28.702 8.57744 29.7421 9.52765 30.4678 10.7052C31.1935 11.8827 31.5758 13.2405 31.5714 14.6247V14.8966Z" fill="#E7A93E"/>
</svg>
