<svg width="58" height="48" viewBox="0 0 58 48" fill="none" xmlns="http://www.w3.org/2000/svg">
<path d="M55.8625 43.1979H36.25V47.9977H56.063C56.4998 48.0191 56.9307 47.8906 57.2833 47.6339C57.636 47.3772 57.8891 47.0078 58 46.5878V45.4238C58 45.4238 57.9855 43.1979 55.8625 43.1979ZM53.1498 42.25C54.4372 42.2481 55.6712 41.7387 56.5807 40.8337C57.4902 39.9288 58.0006 38.7023 58 37.4238C58 34.7515 55.825 32.5964 53.1498 32.5964C52.5127 32.5975 51.882 32.7233 51.2939 32.9665C50.7058 33.2098 50.1717 33.5657 49.7221 34.014C49.2726 34.4624 48.9164 34.9942 48.674 35.5793C48.4316 36.1644 48.3076 36.7911 48.3092 37.4238C48.3092 40.0865 50.4781 42.25 53.1498 42.25ZM42.9345 41.998C45.4793 41.998 47.5262 40.2173 47.5262 37.6938C47.525 35.1751 45.4708 33.854 42.9454 33.8348L36.25 34.6771V41.998H42.9345ZM21.1736 10.7191C24.1449 10.7191 26.5483 8.3192 26.5483 5.35894C26.5483 2.39868 24.1449 0 21.1736 0C18.2048 0 15.7978 2.39868 15.7978 5.35894C15.7978 8.3192 18.2048 10.7191 21.1736 10.7191ZM15.6854 28.0655L15.637 27.9959L13.201 22.3633L13.1974 33.5984H20.4776L22.0678 31.9185L17.7553 30.2698C16.733 29.8882 16.0068 29.0242 15.6854 28.0655ZM17.2284 27.5603C17.464 28.0859 17.9002 28.5118 18.4488 28.7074L26.7585 31.7661C27.0117 31.8767 27.2844 31.9366 27.5609 31.9423C27.8375 31.948 28.1124 31.8994 28.37 31.7992C28.6275 31.6991 28.8626 31.5495 29.0618 31.3588C29.2609 31.1682 29.4202 30.9404 29.5305 30.6885C29.7554 30.178 29.7678 29.5999 29.565 29.0803C29.3621 28.5607 28.9605 28.142 28.4478 27.9155L20.7809 25.0404L18.4126 19.3995L19.9568 18.8283L21.9639 23.6617L27.7917 25.8072V19.901L30.885 21.7286L32.4268 29.4418C32.5156 29.7028 32.6556 29.9437 32.8387 30.1506C33.0219 30.3575 33.2445 30.5263 33.4937 30.6473C33.7429 30.7682 34.0138 30.8389 34.2907 30.8553C34.5676 30.8716 34.845 30.8333 35.1069 30.7425C35.6343 30.5562 36.0665 30.1709 36.3097 29.6702C36.5529 29.1695 36.5874 28.5937 36.4059 28.0679L34.678 20.639C34.5648 20.2278 34.3278 19.8606 33.9989 19.5867C33.1132 18.6123 28.6339 13.6385 28.3149 13.3062C27.8473 12.8406 26.7779 11.9994 24.7575 11.9994H17.5075C13.3871 11.9994 12.5945 16.1752 13.4367 18.2991L17.2284 27.5603ZM35.0417 34.7983H2.37679C1.18779 34.7983 0 35.4643 0 36.9294V47.9977H35.0417V34.7983Z" fill="#C754BE"/>
</svg>
