<svg width="52" height="40" viewBox="0 0 52 40" fill="none" xmlns="http://www.w3.org/2000/svg">
<path d="M4.61714 0L8.90286 8.57143H17.4743L13.1886 0H18.9029L23.1886 8.57143H31.76L27.4743 0H33.1886L37.4743 8.57143H46.0457L41.76 0H46.8143C48.1286 0 49.2267 0.440952 50.1086 1.32286C50.9905 2.20476 51.4305 3.30286 51.4286 4.61714V35.3857C51.4286 36.7 50.9886 37.7981 50.1086 38.68C49.2286 39.5619 48.1305 40.0019 46.8143 40H4.61428C3.3 40 2.20286 39.56 1.32286 38.68C0.442857 37.8 0.00190476 36.701 0 35.3829V4.61714C0 3.30095 0.440952 2.20286 1.32286 1.32286C2.20476 0.442857 3.3019 0.00190476 4.61428 0M2.85714 11.4286V35.3857C2.85714 35.8981 3.0219 36.319 3.35143 36.6486C3.68095 36.9781 4.10286 37.1429 4.61714 37.1429H46.8143C47.3267 37.1429 47.7476 36.9781 48.0771 36.6486C48.4067 36.319 48.5714 35.8981 48.5714 35.3857V11.4286H2.85714Z" fill="#5488EE"/>
<path d="M31.5 23.5L23.25 28.6962L23.25 18.3038L31.5 23.5Z" fill="#5488EE"/>
</svg>
