<svg width="50" height="50" viewBox="0 0 50 50" fill="none" xmlns="http://www.w3.org/2000/svg">
<path d="M2.0835 45.833C2.0835 46.958 3.021 47.9163 4.16683 47.9163H31.2502C32.4168 47.9163 33.3335 46.958 33.3335 45.833V43.7497H2.0835V45.833ZM17.7085 18.7497C9.896 18.7497 2.0835 22.9163 2.0835 31.2497H33.3335C33.3335 22.9163 25.521 18.7497 17.7085 18.7497ZM7.54183 27.083C9.85433 23.8538 14.771 22.9163 17.7085 22.9163C20.646 22.9163 25.5627 23.8538 27.8752 27.083H7.54183ZM2.0835 35.4163H33.3335V39.583H2.0835V35.4163ZM37.5002 10.4163V2.08301H33.3335V10.4163H22.9168L23.396 14.583H43.3127L40.396 43.7497H37.5002V47.9163H41.0835C42.8335 47.9163 44.271 46.5622 44.4793 44.8538L47.9168 10.4163H37.5002Z" fill="#E56868"/>
</svg>
