<svg width="58" height="36" viewBox="0 0 58 36" fill="none" xmlns="http://www.w3.org/2000/svg">
<path d="M53.2139 4.75312C54.762 6.29063 55.9421 8.03438 56.7539 9.98438C57.5658 11.9344 57.9811 14.0062 58 16.2C58 16.8562 57.9811 17.6437 57.9434 18.5625C57.9056 19.4812 57.8301 20.475 57.7168 21.5437C57.6035 22.6125 57.4242 23.7094 57.1787 24.8344C56.9333 25.9594 56.6217 27.075 56.2441 28.1812C55.6777 29.7937 55.0169 31.1062 54.2617 32.1187C53.5065 33.1312 52.723 33.9281 51.9111 34.5094C51.0993 35.0906 50.278 35.4844 49.4473 35.6906C48.6165 35.8969 47.8424 36 47.125 36C46.502 36 45.9355 35.8969 45.4258 35.6906C44.916 35.4844 44.4251 35.2031 43.9531 34.8469C43.4811 34.4906 43.0469 34.1063 42.6504 33.6937C42.2539 33.2812 41.848 32.8312 41.4326 32.3438C41.0361 31.8937 40.6491 31.4625 40.2715 31.05C39.8939 30.6375 39.488 30.2719 39.0537 29.9531C38.6195 29.6344 38.1852 29.3625 37.751 29.1375C37.3167 28.9125 36.807 28.8 36.2217 28.8H21.7783C21.2308 28.8187 20.7305 28.9312 20.2773 29.1375C19.8242 29.3438 19.3805 29.6062 18.9463 29.925C18.512 30.2437 18.1156 30.6187 17.7568 31.05C17.3981 31.4812 17.0016 31.9125 16.5674 32.3438C16.1709 32.7938 15.7744 33.2344 15.3779 33.6656C14.9814 34.0969 14.5472 34.4906 14.0752 34.8469C13.6032 35.2031 13.1123 35.475 12.6025 35.6625C12.0928 35.85 11.5169 35.9625 10.875 36C10.1576 36 9.38346 35.8969 8.55273 35.6906C7.72201 35.4844 6.90072 35.1 6.08887 34.5375C5.27702 33.975 4.49349 33.1781 3.73828 32.1469C2.98307 31.1156 2.32227 29.7937 1.75586 28.1812C1.37826 27.0938 1.07617 25.9875 0.849609 24.8625C0.623047 23.7375 0.443685 22.6313 0.311523 21.5437C0.179362 20.4562 0.094401 19.4625 0.0566406 18.5625C0.0188802 17.6625 0 16.875 0 16.2C0 14.025 0.405924 11.9625 1.21777 10.0125C2.02962 8.0625 3.21908 6.30937 4.78613 4.75312C6.31543 3.21562 8.07129 2.04375 10.0537 1.2375C12.0361 0.43125 14.1224 0.01875 16.3125 0H41.6875C43.8776 0 45.9544 0.403125 47.918 1.20938C49.8815 2.01562 51.6468 3.19687 53.2139 4.75312ZM52.8174 27C53.1761 26.0062 53.4593 24.975 53.667 23.9062C53.8747 22.8375 54.0257 21.8156 54.1201 20.8406C54.2145 19.8656 54.2806 18.9656 54.3184 18.1406C54.3561 17.3156 54.375 16.6687 54.375 16.2C54.375 14.4562 54.0446 12.825 53.3838 11.3062C52.723 9.7875 51.8167 8.45625 50.665 7.3125C49.5133 6.16875 48.1729 5.26875 46.6436 4.6125C45.1143 3.95625 43.4622 3.61875 41.6875 3.6H16.3125C14.5566 3.6 12.9141 3.92812 11.3848 4.58437C9.85547 5.24062 8.51497 6.14062 7.36328 7.28437C6.21159 8.42812 5.30534 9.75937 4.64453 11.2781C3.98372 12.7969 3.64388 14.4375 3.625 16.2C3.625 16.6875 3.63444 17.3344 3.65332 18.1406C3.6722 18.9469 3.73828 19.8375 3.85156 20.8125C3.96484 21.7875 4.12533 22.8187 4.33301 23.9062C4.54069 24.9937 4.82389 26.025 5.18262 27C5.65462 28.35 6.17383 29.3906 6.74023 30.1219C7.30664 30.8531 7.85417 31.3875 8.38281 31.725C8.91146 32.0625 9.40234 32.2594 9.85547 32.3156C10.3086 32.3719 10.6484 32.4 10.875 32.4C11.2904 32.4 11.7435 32.1562 12.2344 31.6687C12.7253 31.1812 13.2539 30.6187 13.8203 29.9812C14.2734 29.4562 14.7549 28.9219 15.2646 28.3781C15.7744 27.8344 16.3503 27.3281 16.9922 26.8594C17.6341 26.3906 18.3421 26.0062 19.1162 25.7062C19.8903 25.4062 20.7493 25.2375 21.6934 25.2H36.3066C37.2507 25.2375 38.1097 25.4062 38.8838 25.7062C39.6579 26.0062 40.3564 26.3812 40.9795 26.8312C41.6025 27.2812 42.1784 27.7875 42.707 28.35C43.2357 28.9125 43.7266 29.4562 44.1797 29.9812C44.7272 30.6 45.2464 31.1531 45.7373 31.6406C46.2282 32.1281 46.6908 32.3812 47.125 32.4C47.3516 32.4 47.682 32.3719 48.1162 32.3156C48.5505 32.2594 49.0413 32.0625 49.5889 31.725C50.1364 31.3875 50.6934 30.8531 51.2598 30.1219C51.8262 29.3906 52.3454 28.35 52.8174 27ZM14.5 14.4H18.125V18H14.5V21.6H10.875V18H7.25V14.4H10.875V10.8H14.5V14.4ZM47.125 18C47.6348 18 48.1068 18.0938 48.541 18.2812C48.9753 18.4688 49.3529 18.7219 49.6738 19.0406C49.9948 19.3594 50.2591 19.7437 50.4668 20.1938C50.6745 20.6437 50.7689 21.1125 50.75 21.6C50.75 22.1062 50.6556 22.575 50.4668 23.0062C50.278 23.4375 50.0231 23.8125 49.7021 24.1312C49.3812 24.45 48.9941 24.7125 48.541 24.9187C48.0879 25.125 47.6159 25.2188 47.125 25.2C46.6152 25.2 46.1432 25.1062 45.709 24.9187C45.2747 24.7312 44.8971 24.4781 44.5762 24.1594C44.2552 23.8406 43.9909 23.4562 43.7832 23.0062C43.5755 22.5562 43.4811 22.0875 43.5 21.6C43.5 21.0938 43.5944 20.625 43.7832 20.1938C43.972 19.7625 44.2269 19.3875 44.5479 19.0688C44.8688 18.75 45.2559 18.4875 45.709 18.2812C46.1621 18.075 46.6341 17.9812 47.125 18ZM39.875 10.8C40.3848 10.8 40.8568 10.8938 41.291 11.0812C41.7253 11.2687 42.1029 11.5219 42.4238 11.8406C42.7448 12.1594 43.0091 12.5437 43.2168 12.9937C43.4245 13.4437 43.5189 13.9125 43.5 14.4C43.5 14.9062 43.4056 15.375 43.2168 15.8062C43.028 16.2375 42.7731 16.6125 42.4521 16.9312C42.1312 17.25 41.7441 17.5125 41.291 17.7188C40.8379 17.925 40.3659 18.0187 39.875 18C39.3652 18 38.8932 17.9062 38.459 17.7188C38.0247 17.5312 37.6471 17.2781 37.3262 16.9594C37.0052 16.6406 36.7409 16.2563 36.5332 15.8062C36.3255 15.3562 36.2311 14.8875 36.25 14.4C36.25 13.8937 36.3444 13.425 36.5332 12.9937C36.722 12.5625 36.9769 12.1875 37.2979 11.8687C37.6188 11.55 38.0059 11.2875 38.459 11.0812C38.9121 10.875 39.3841 10.7812 39.875 10.8Z" fill="#20B617"/>
</svg>
