<svg width="50" height="50" viewBox="0 0 50 50" fill="none" xmlns="http://www.w3.org/2000/svg">
<path d="M34.6668 49.1663C30.6391 49.1663 27.2154 47.7566 24.396 44.9372C21.5766 42.1177 20.1668 38.6941 20.1668 34.6663C20.1668 30.6386 21.5766 27.215 24.396 24.3955C27.2154 21.5761 30.6391 20.1663 34.6668 20.1663C38.6946 20.1663 42.1182 21.5761 44.9377 24.3955C47.7571 27.215 49.1668 30.6386 49.1668 34.6663C49.1668 38.6941 47.7571 42.1177 44.9377 44.9372C42.1182 47.7566 38.6946 49.1663 34.6668 49.1663ZM34.6668 44.333C37.3252 44.333 39.6009 43.3865 41.4939 41.4934C43.387 39.6004 44.3335 37.3247 44.3335 34.6663C44.3335 32.008 43.387 29.7323 41.4939 27.8393C39.6009 25.9462 37.3252 24.9997 34.6668 24.9997C32.0085 24.9997 29.7328 25.9462 27.8397 27.8393C25.9467 29.7323 25.0002 32.008 25.0002 34.6663C25.0002 37.3247 25.9467 39.6004 27.8397 41.4934C29.7328 43.3865 32.0085 44.333 34.6668 44.333ZM5.66683 44.333C4.33766 44.333 3.20022 43.8601 2.2545 42.9144C1.30877 41.9687 0.835107 40.8305 0.833496 39.4997V21.133C0.833496 20.8108 0.864107 20.4886 0.92533 20.1663C0.986552 19.8441 1.07677 19.5219 1.196 19.1997L6.02933 8.08301H5.66683C4.98211 8.08301 4.40855 7.85101 3.94616 7.38701C3.48377 6.92301 3.25177 6.34945 3.25016 5.66634V3.24967C3.25016 2.56495 3.48216 1.9914 3.94616 1.52901C4.41016 1.06662 4.98372 0.834619 5.66683 0.833008H22.5835C23.2682 0.833008 23.8426 1.06501 24.3066 1.52901C24.7706 1.99301 25.0018 2.56656 25.0002 3.24967V5.66634C25.0002 6.35106 24.7682 6.92542 24.3042 7.38942C23.8402 7.85342 23.2666 8.08462 22.5835 8.08301H22.221L26.2085 17.2663C25.4432 17.6691 24.7182 18.092 24.0335 18.5351C23.3488 18.9781 22.7043 19.4816 22.1002 20.0455L17.0252 8.08301H11.2252L5.66683 21.133V39.4997H15.9377C16.1391 40.3455 16.4105 41.1817 16.7521 42.0082C17.0936 42.8347 17.5069 43.6096 17.9918 44.333H5.66683ZM34.6668 17.7497C32.9752 17.7497 31.5453 17.1656 30.3772 15.9976C29.2092 14.8295 28.6252 13.3997 28.6252 11.708C28.6252 10.0163 29.2092 8.58648 30.3772 7.41842C31.5453 6.25037 32.9752 5.66634 34.6668 5.66634V17.7497ZM34.6668 17.7497C34.6668 16.058 35.2509 14.6281 36.4189 13.4601C37.587 12.292 39.0168 11.708 40.7085 11.708C42.4002 11.708 43.83 12.292 44.9981 13.4601C46.1661 14.6281 46.7502 16.058 46.7502 17.7497H34.6668Z" fill="#0CBCD1"/>
</svg>
