<svg width="62" height="62" viewBox="0 0 62 62" fill="none" xmlns="http://www.w3.org/2000/svg">
<path d="M21.2146 23.25L11.0544 42.5604C6.3501 51.5013 26.0377 54.25 31.0003 54.25C35.9629 54.25 55.6504 51.5013 50.9462 42.5604L40.7859 23.25" stroke="#7E1946" stroke-width="3.875" stroke-linecap="round" stroke-linejoin="round"/>
<path d="M26.1796 31.5683C27.9104 30.6254 29.4243 31.0078 30.331 31.6123C30.7056 31.8628 30.8916 31.9868 31.0001 31.9868C31.1086 31.9868 31.2946 31.8628 31.6692 31.6123C32.5759 31.0078 34.0872 30.6254 35.8206 31.5709C38.0939 32.8109 38.608 36.8978 33.3664 40.3465C32.3667 41.0053 31.8681 41.3333 31.0001 41.3333C30.1347 41.3333 29.6335 41.0053 28.6363 40.3465C23.3922 36.8978 23.9088 32.8109 26.1822 31.5709M18.0834 27.9362C12.9168 30.4601 3.80792 22.2968 5.33726 20.3412L14.3893 8.7575C14.8801 8.12717 15.6861 7.75 16.5438 7.75H21.9765C22.2778 7.75157 22.5714 7.84555 22.8176 8.01924C23.0639 8.19294 23.2509 8.438 23.3534 8.72133C24.3428 11.4778 27.8019 14.7844 31.0001 14.7844C34.1983 14.7844 37.6573 11.4778 38.6468 8.72133C38.7493 8.438 38.9363 8.19294 39.1825 8.01924C39.4288 7.84555 39.7223 7.75157 40.0237 7.75H45.4564C46.3141 7.75 47.1175 8.12717 47.6109 8.7575L56.6629 20.3386C58.1923 22.2968 49.0834 30.4601 43.9219 27.9362" stroke="#7E1946" stroke-width="3.875" stroke-linecap="round" stroke-linejoin="round"/>
</svg>
