<svg width="64" height="64" viewBox="0 0 64 64" fill="none" xmlns="http://www.w3.org/2000/svg">
<path d="M3.99986 48.8216C3.62119 48.8216 3.30474 48.6936 3.05052 48.4376C2.7963 48.1816 2.6683 47.8642 2.66652 47.4856C2.66474 47.1069 2.79274 46.7905 3.05052 46.5362C3.3083 46.282 3.62474 46.1549 3.99986 46.1549H7.99986V16.4109C7.99986 15.2269 8.42208 14.2127 9.26652 13.3682C10.111 12.5238 11.1243 12.1016 12.3065 12.1016H51.6932C52.8772 12.1016 53.8905 12.5238 54.7332 13.3682C55.5759 14.2127 55.9981 15.226 55.9999 16.4082V46.1549H59.9999C60.3785 46.1549 60.695 46.2829 60.9492 46.5389C61.2052 46.7931 61.3332 47.1096 61.3332 47.4882C61.3332 47.8669 61.2052 48.1842 60.9492 48.4402C60.6932 48.6962 60.3767 48.8233 59.9999 48.8216H3.99986ZM27.6932 46.1549H36.3065C36.5803 46.1549 36.8203 46.0518 37.0265 45.8456C37.231 45.6411 37.3332 45.402 37.3332 45.1282C37.3332 44.8545 37.231 44.6144 37.0265 44.4082C36.8221 44.202 36.5821 44.1007 36.3065 44.1042H27.6932C27.4194 44.1042 27.1794 44.2064 26.9732 44.4109C26.7687 44.6153 26.6665 44.8545 26.6665 45.1282C26.6665 45.402 26.7696 45.642 26.9759 45.8482C27.1803 46.0527 27.4194 46.1549 27.6932 46.1549ZM10.6665 41.4349H53.3332V16.4109C53.3332 15.9309 53.1794 15.538 52.8719 15.2322C52.5643 14.9247 52.1714 14.7709 51.6932 14.7709H12.3065C11.8283 14.7709 11.4354 14.9247 11.1279 15.2322C10.8203 15.5398 10.6665 15.9327 10.6665 16.4109V41.4349Z" fill="#5050F2"/>
</svg>
