<svg width="62" height="54" viewBox="0 0 62 54" fill="none" xmlns="http://www.w3.org/2000/svg">
<path d="M62 7.71429L58.125 23.1429H50.375V54H11.625V23.1429H3.875L0 7.71429L23.25 0C23.25 1.06473 23.4518 2.05915 23.8555 2.98326C24.2591 3.90737 24.8141 4.73103 25.5205 5.45424C26.2269 6.17746 27.0443 6.72991 27.9727 7.11161C28.901 7.4933 29.9102 7.6942 31 7.71429C32.0697 7.71429 33.0687 7.51339 33.9971 7.11161C34.9255 6.70982 35.7529 6.15737 36.4795 5.45424C37.2061 4.75112 37.7611 3.9375 38.1445 3.01339C38.528 2.08929 38.7298 1.08482 38.75 0L62 7.71429ZM57.3682 10.2455L41.5049 4.9721C41.0205 5.97656 40.415 6.88058 39.6885 7.68415C38.9619 8.48772 38.1344 9.1808 37.2061 9.76339C36.2777 10.346 35.2988 10.7879 34.2695 11.0893C33.2402 11.3906 32.1504 11.5513 31 11.5714C29.8698 11.5714 28.7799 11.4208 27.7305 11.1194C26.681 10.8181 25.7021 10.3761 24.7939 9.79353C23.8857 9.21094 23.0684 8.51786 22.3418 7.71429C21.6152 6.91071 20.9997 5.99665 20.4951 4.9721L4.63184 10.2455L6.90234 19.2857H15.5V50.1429H46.5V19.2857H55.0977L57.3682 10.2455Z" fill="#FE734A"/>
</svg>
