<svg width="46" height="46" viewBox="0 0 46 46" fill="none" xmlns="http://www.w3.org/2000/svg">
<path d="M0.0834961 43.833C0.0834961 44.958 1.021 45.9163 2.16683 45.9163H29.2502C30.4168 45.9163 31.3335 44.958 31.3335 43.833V41.7497H0.0834961V43.833ZM15.7085 16.7497C7.896 16.7497 0.0834961 20.9163 0.0834961 29.2497H31.3335C31.3335 20.9163 23.521 16.7497 15.7085 16.7497ZM5.54183 25.083C7.85433 21.8538 12.771 20.9163 15.7085 20.9163C18.646 20.9163 23.5627 21.8538 25.8752 25.083H5.54183ZM0.0834961 33.4163H31.3335V37.583H0.0834961V33.4163ZM35.5002 8.41634V0.0830078H31.3335V8.41634H20.9168L21.396 12.583H41.3127L38.396 41.7497H35.5002V45.9163H39.0835C40.8335 45.9163 42.271 44.5622 42.4793 42.8538L45.9168 8.41634H35.5002Z" fill="#E56868"/>
</svg>
