<svg width="38" height="53" viewBox="0 0 38 53" fill="none" xmlns="http://www.w3.org/2000/svg">
<path d="M38 26.5C37.9993 23.5284 37.2958 20.5987 35.9465 17.9485C34.5972 15.2982 32.6401 13.002 30.2339 11.2459L28.7519 3.11138C28.5933 2.23866 28.1322 1.44911 27.449 0.880476C26.7658 0.311843 25.9039 0.00022871 25.0137 0H12.9868C12.0966 0.00022871 11.2347 0.311843 10.5515 0.880476C9.86833 1.44911 9.40723 2.23866 9.24865 3.11138L7.76667 11.2459C5.35974 13.0014 3.40213 15.2975 2.05269 17.9479C0.703253 20.5982 0 23.5282 0 26.5C0 29.4718 0.703253 32.4018 2.05269 35.0521C3.40213 37.7025 5.35974 39.9986 7.76667 41.7541L9.24865 49.8886C9.40723 50.7613 9.86833 51.5509 10.5515 52.1195C11.2347 52.6882 12.0966 52.9998 12.9868 53H25.0137C25.9039 52.9998 26.7658 52.6882 27.449 52.1195C28.1322 51.5509 28.5933 50.7613 28.7519 49.8886L30.2339 41.7541C32.6401 39.998 34.5972 37.7018 35.9465 35.0515C37.2958 32.4013 37.9993 29.4716 38 26.5ZM12.9868 3.78571H25.0137L25.9423 8.8846C21.4811 7.13377 16.5194 7.13377 12.0582 8.8846L12.9868 3.78571ZM3.80048 26.5C3.80048 23.505 4.69193 20.5773 6.3621 18.0871C8.03228 15.5968 10.4062 13.656 13.1836 12.5098C15.961 11.3637 19.0171 11.0638 21.9656 11.6481C24.9141 12.2324 27.6224 13.6746 29.7481 15.7924C31.8739 17.9101 33.3215 20.6083 33.908 23.5458C34.4945 26.4832 34.1935 29.5279 33.043 32.2949C31.8926 35.0619 29.9444 37.4269 27.4448 39.0908C24.9452 40.7547 22.0065 41.6429 19.0003 41.6429C14.9704 41.6385 11.1068 40.0417 8.25725 37.2028C5.40769 34.3639 3.80488 30.5148 3.80048 26.5ZM25.0137 49.2143H12.9868L12.0582 44.1154C16.5194 45.8662 21.4811 45.8662 25.9423 44.1154L25.0137 49.2143ZM17.1003 26.5V17.0357C17.1003 16.5337 17.3005 16.0522 17.6568 15.6973C18.0131 15.3423 18.4964 15.1429 19.0003 15.1429C19.5042 15.1429 19.9874 15.3423 20.3438 15.6973C20.7001 16.0522 20.9002 16.5337 20.9002 17.0357V24.6071H28.5001C29.004 24.6071 29.4873 24.8066 29.8436 25.1615C30.1999 25.5165 30.4001 25.998 30.4001 26.5C30.4001 27.002 30.1999 27.4835 29.8436 27.8385C29.4873 28.1934 29.004 28.3929 28.5001 28.3929H19.0003C18.4964 28.3929 18.0131 28.1934 17.6568 27.8385C17.3005 27.4835 17.1003 27.002 17.1003 26.5Z" fill="#43BDA3"/>
</svg>
