<svg width="56" height="56" viewBox="0 0 56 56" fill="none" xmlns="http://www.w3.org/2000/svg">
<g clip-path="url(#clip0_21_704)">
<path d="M46.9655 45.8719C46.9587 45.8531 46.9507 45.8348 46.9414 45.8172L36.9926 24.6291L41.477 17.5897C41.4857 17.577 41.4938 17.5639 41.5011 17.5503C41.8273 17.0065 41.9996 16.3842 41.9996 15.75C41.9996 15.1158 41.8273 14.4935 41.5011 13.9497C41.4814 13.9147 41.4573 13.8797 41.4355 13.8469L36.7498 7.15313V1.75C36.7498 1.28587 36.5655 0.840752 36.2373 0.512563C35.9091 0.184374 35.464 0 34.9998 0C34.5357 0 34.0906 0.184374 33.7624 0.512563C33.4342 0.840752 33.2498 1.28587 33.2498 1.75V7.09187L32.0992 8.53125C31.6074 9.146 30.9835 9.64225 30.2739 9.98328C29.5643 10.3243 28.7871 10.5014 27.9998 10.5014C27.2125 10.5014 26.4353 10.3243 25.7257 9.98328C25.0161 9.64225 24.3923 9.146 23.9005 8.53125L22.7498 7.09187V1.75C22.7498 1.28587 22.5655 0.840752 22.2373 0.512563C21.9091 0.184374 21.464 0 20.9998 0C20.5357 0 20.0906 0.184374 19.7624 0.512563C19.4342 0.840752 19.2498 1.28587 19.2498 1.75V7.15313L14.5642 13.8469C14.5423 13.8797 14.5183 13.9147 14.4986 13.9497C14.1724 14.4935 14.0001 15.1158 14.0001 15.75C14.0001 16.3842 14.1724 17.0065 14.4986 17.5503C14.5059 17.5639 14.5139 17.577 14.5226 17.5897L19.007 24.6291L9.05827 45.8172C9.04901 45.8348 9.04097 45.8531 9.0342 45.8719C8.80622 46.4041 8.71384 46.9846 8.76533 47.5613C8.81683 48.138 9.01058 48.6929 9.32925 49.1763C9.64791 49.6597 10.0815 50.0565 10.5912 50.3312C11.1009 50.6058 11.6708 50.7497 12.2498 50.75H43.7498C44.329 50.7501 44.8992 50.6064 45.4092 50.332C45.9192 50.0575 46.3531 49.6607 46.672 49.1772C46.9909 48.6937 47.1849 48.1387 47.2365 47.5618C47.2881 46.9849 47.1957 46.4043 46.9676 45.8719H46.9655ZM17.4998 15.75L21.0939 10.6247L21.1661 10.7166C21.9858 11.7417 23.0257 12.5692 24.2086 13.1379C25.3915 13.7066 26.6873 14.0019 27.9998 14.0019C29.3124 14.0019 30.6081 13.7066 31.7911 13.1379C32.974 12.5692 34.0139 11.7417 34.8336 10.7166L34.9058 10.6247L38.4998 15.75L34.0417 22.75H21.9601L17.4998 15.75ZM12.2498 47.25L22.1089 26.25H33.8864L43.7498 47.25H12.2498Z" fill="#6E54D6"/>
</g>
<defs>
<clipPath id="clip0_21_704">
<rect width="56" height="56" fill="white"/>
</clipPath>
</defs>
</svg>
