<svg width="64" height="50" viewBox="0 0 64 50" fill="none" xmlns="http://www.w3.org/2000/svg">
<path d="M16.2416 13.3382C19.8772 13.3382 22.835 10.3465 22.835 6.66919C22.835 2.99171 19.8772 0 16.2416 0C12.6058 0 9.648 2.99171 9.648 6.66919C9.648 10.3465 12.606 13.3382 16.2416 13.3382ZM16.2416 3.19874C18.1334 3.19874 19.6725 4.75563 19.6725 6.66919C19.6725 8.58275 18.1334 10.1395 16.2416 10.1395C14.3495 10.1395 12.8105 8.58275 12.8105 6.66919C12.8105 4.75546 14.3497 3.19874 16.2416 3.19874ZM33.4287 39.9785V48.4006C33.4287 49.284 32.7209 50 31.8475 50H7.05196C6.17859 50 5.47073 49.284 5.47073 48.4006V46.5303C5.47073 45.6469 6.17859 44.9309 7.05196 44.9309C7.92533 44.9309 8.6332 45.6469 8.6332 46.5303V46.8013H30.2663V41.5779H13.3903C12.5169 41.5779 11.809 40.8619 11.809 39.9785C11.809 39.0951 12.5169 38.3792 13.3903 38.3792H31.8475C32.7209 38.3792 33.4287 39.0953 33.4287 39.9785ZM62.4188 31.4665H47.683V27.5966H59.2501C60.1235 27.5966 60.8314 26.8806 60.8314 25.9972V8.58186C60.8314 7.69847 60.1235 6.98249 59.2501 6.98249H32.9537C32.0803 6.98249 31.3724 7.69847 31.3724 8.58186V25.9972C31.3724 26.8806 32.0803 27.5966 32.9537 27.5966H44.5208V31.4665H8.48263L8.66535 25.2915C8.71999 23.4441 9.32508 19.1421 13.7518 19.0966C13.7798 19.0965 13.8075 19.0954 13.8351 19.0936C13.8697 19.0959 13.9047 19.0972 13.94 19.0972H18.7473C18.7517 19.0972 18.7563 19.0972 18.7608 19.0972C23.1609 19.1611 23.7633 23.4483 23.818 25.2919C23.8442 26.1747 24.5729 26.8678 25.446 26.8427C26.319 26.8163 27.0052 26.0791 26.9792 25.1961C26.8132 19.5974 23.5884 15.9478 18.7636 15.8983C18.747 15.8979 18.7306 15.8983 18.7139 15.8984H13.94C13.9068 15.8984 13.8736 15.8995 13.8407 15.9016C13.8007 15.899 13.7603 15.8977 13.7199 15.8983C8.8948 15.9478 5.67014 19.5974 5.50446 25.1961L5.31893 31.4667H1.58124C0.707867 31.4667 0 32.1827 0 33.0661C0 33.9494 0.707867 34.6654 1.58124 34.6654H5.22405L5.13287 37.7444C5.10686 38.6272 5.79312 39.3644 6.66614 39.3909C6.6823 39.3912 6.69829 39.3916 6.71428 39.3916C7.56569 39.3916 8.26828 38.7067 8.29393 37.84L8.38793 34.6654H46.0691C46.0907 34.666 46.1129 34.666 46.1345 34.6654H62.4188C63.2921 34.6654 64 33.9494 64 33.0661C64 32.1827 63.2921 31.4665 62.4188 31.4665ZM34.5349 24.3978V10.1812H57.6691V24.3978H34.5349Z" fill="#7E1946"/>
</svg>
