<svg width="52" height="50" viewBox="0 0 52 50" fill="none" xmlns="http://www.w3.org/2000/svg">
<path d="M46.8 11.0263C48.1751 11.0263 49.2624 11.4993 50.1253 12.4189C51.0385 13.417 51.5 14.4834 51.5 15.7895V44.7368C51.5 46.0429 51.0384 47.1095 50.1252 48.1076C49.2623 49.0271 48.175 49.5 46.8 49.5H5.2C3.82492 49.5 2.73767 49.0271 1.87475 48.1075C0.961533 47.1094 0.5 46.0429 0.5 44.7368V15.7895C0.5 14.4834 0.961547 13.4169 1.87479 12.4188C2.7377 11.4992 3.82494 11.0263 5.2 11.0263H15.6H16.1V10.5263V5.26316C16.1 3.86401 16.571 2.75755 17.459 1.88244L17.4591 1.88257L17.4683 1.87296C18.3327 0.974415 19.4231 0.5 20.8 0.5H31.2C32.5769 0.5 33.6673 0.974414 34.5317 1.87296L34.5315 1.87308L34.541 1.88244C35.429 2.75755 35.9 3.86401 35.9 5.26316V10.5263V11.0263H36.4H46.8ZM5.2 15.2895H4.7V15.7895V44.7368V45.2368H5.2H46.8H47.3V44.7368V15.7895V15.2895H46.8H5.2ZM31.2 11.0263H31.7V10.5263V5.26316V4.76316H31.2H20.8H20.3V5.26316V10.5263V11.0263H20.8H31.2Z" fill="#7E1946" stroke="white"/>
</svg>
