<svg width="40" height="40" viewBox="0 0 40 40" fill="none" xmlns="http://www.w3.org/2000/svg">
<path d="M10.2925 31.3475C10.8375 31.3475 11.2942 31.1625 11.6625 30.7925C12.0292 30.4242 12.2125 29.9667 12.2125 29.42C12.2125 28.8733 12.0275 28.4167 11.6575 28.05C11.2875 27.6833 10.83 27.5 10.285 27.5C9.74 27.5 9.28333 27.685 8.915 28.055C8.54667 28.425 8.36333 28.8825 8.365 29.4275C8.36667 29.9725 8.55167 30.4283 8.92 30.795C9.28833 31.1617 9.74583 31.3475 10.2925 31.3475ZM10.2925 21.9225C10.8375 21.9225 11.2942 21.7383 11.6625 21.37C12.0292 21 12.2125 20.5417 12.2125 19.995C12.2125 19.4483 12.0275 18.9925 11.6575 18.6275C11.2875 18.2625 10.83 18.0792 10.285 18.0775C9.74 18.0758 9.28333 18.26 8.915 18.63C8.54667 19 8.36333 19.4583 8.365 20.005C8.36667 20.5517 8.55167 21.0075 8.92 21.3725C9.28833 21.7375 9.74583 21.9208 10.2925 21.9225ZM10.2925 12.5C10.8375 12.5 11.2942 12.3158 11.6625 11.9475C12.0292 11.5775 12.2125 11.1192 12.2125 10.5725C12.2125 10.0258 12.0275 9.57 11.6575 9.205C11.2875 8.84 10.83 8.65667 10.285 8.655C9.74 8.65333 9.28333 8.8375 8.915 9.2075C8.54833 9.5775 8.365 10.035 8.365 10.58C8.365 11.125 8.55 11.5817 8.92 11.95C9.29 12.3183 9.7475 12.5017 10.2925 12.5ZM17.98 30.675H31.4425V28.175H17.98V30.675ZM17.98 21.25H31.4425V18.75H17.98V21.25ZM17.98 11.825H31.4425V9.325H17.98V11.825ZM4.04 40C2.88833 40 1.9275 39.615 1.1575 38.845C0.3875 38.075 0.00166667 37.1133 0 35.96V4.04C0 2.88833 0.385833 1.9275 1.1575 1.1575C1.92917 0.3875 2.89 0.00166667 4.04 0H35.9625C37.1125 0 38.0733 0.385833 38.845 1.1575C39.6167 1.92917 40.0017 2.89 40 4.04V35.9625C40 37.1125 39.615 38.0733 38.845 38.845C38.075 39.6167 37.1133 40.0017 35.96 40H4.04ZM4.04 37.5H35.9625C36.3458 37.5 36.6983 37.34 37.02 37.02C37.3417 36.7 37.5017 36.3467 37.5 35.96V4.04C37.5 3.655 37.34 3.30167 37.02 2.98C36.7 2.65833 36.3467 2.49833 35.96 2.5H4.04C3.655 2.5 3.30167 2.66 2.98 2.98C2.65833 3.3 2.49833 3.65333 2.5 4.04V35.9625C2.5 36.3458 2.66 36.6983 2.98 37.02C3.3 37.3417 3.6525 37.5017 4.0375 37.5" fill="#7E1946"/>
</svg>
