<svg width="811" height="455" viewBox="0 0 811 455" fill="none" xmlns="http://www.w3.org/2000/svg">
<rect width="811" height="455" fill="#F2F4F6"/>
<path d="M339.295 318.455V333H337.591L329.665 321.58H329.523V333H327.761V318.455H329.466L337.42 329.903H337.562V318.455H339.295ZM347.025 333.227C346.04 333.227 345.176 332.993 344.432 332.524C343.694 332.055 343.116 331.4 342.699 330.557C342.287 329.714 342.081 328.729 342.081 327.602C342.081 326.466 342.287 325.474 342.699 324.626C343.116 323.779 343.694 323.121 344.432 322.652C345.176 322.183 346.04 321.949 347.025 321.949C348.009 321.949 348.871 322.183 349.61 322.652C350.353 323.121 350.931 323.779 351.343 324.626C351.759 325.474 351.968 326.466 351.968 327.602C351.968 328.729 351.759 329.714 351.343 330.557C350.931 331.4 350.353 332.055 349.61 332.524C348.871 332.993 348.009 333.227 347.025 333.227ZM347.025 331.722C347.773 331.722 348.388 331.53 348.871 331.146C349.354 330.763 349.712 330.259 349.944 329.634C350.176 329.009 350.292 328.331 350.292 327.602C350.292 326.873 350.176 326.194 349.944 325.564C349.712 324.934 349.354 324.425 348.871 324.037C348.388 323.649 347.773 323.455 347.025 323.455C346.276 323.455 345.661 323.649 345.178 324.037C344.695 324.425 344.337 324.934 344.105 325.564C343.873 326.194 343.757 326.873 343.757 327.602C343.757 328.331 343.873 329.009 344.105 329.634C344.337 330.259 344.695 330.763 345.178 331.146C345.661 331.53 346.276 331.722 347.025 331.722ZM362.14 318.455V333H360.379V318.455H362.14ZM365.444 333V322.091H367.064V323.795H367.206C367.433 323.213 367.8 322.761 368.306 322.439C368.813 322.112 369.422 321.949 370.132 321.949C370.851 321.949 371.45 322.112 371.929 322.439C372.412 322.761 372.788 323.213 373.058 323.795H373.172C373.451 323.232 373.87 322.785 374.429 322.453C374.987 322.117 375.657 321.949 376.439 321.949C377.414 321.949 378.212 322.254 378.832 322.865C379.452 323.471 379.762 324.416 379.762 325.699V333H378.086V325.699C378.086 324.894 377.866 324.319 377.426 323.973C376.985 323.627 376.467 323.455 375.87 323.455C375.103 323.455 374.509 323.687 374.088 324.151C373.666 324.61 373.456 325.192 373.456 325.898V333H371.751V325.528C371.751 324.908 371.55 324.409 371.147 324.03C370.745 323.646 370.226 323.455 369.592 323.455C369.156 323.455 368.749 323.571 368.37 323.803C367.996 324.035 367.693 324.357 367.461 324.768C367.234 325.176 367.12 325.647 367.12 326.182V333H365.444ZM386.037 333.256C385.346 333.256 384.719 333.125 384.155 332.865C383.592 332.6 383.144 332.219 382.813 331.722C382.481 331.22 382.316 330.614 382.316 329.903C382.316 329.278 382.439 328.772 382.685 328.384C382.931 327.991 383.26 327.683 383.672 327.46C384.084 327.238 384.539 327.072 385.036 326.963C385.538 326.849 386.042 326.759 386.549 326.693C387.212 326.608 387.749 326.544 388.161 326.501C388.578 326.454 388.881 326.376 389.07 326.267C389.264 326.158 389.361 325.969 389.361 325.699V325.642C389.361 324.941 389.169 324.397 388.786 324.009C388.407 323.62 387.832 323.426 387.06 323.426C386.26 323.426 385.632 323.601 385.178 323.952C384.723 324.302 384.404 324.676 384.219 325.074L382.628 324.506C382.912 323.843 383.291 323.327 383.765 322.957C384.243 322.583 384.764 322.323 385.327 322.176C385.895 322.025 386.454 321.949 387.003 321.949C387.354 321.949 387.756 321.991 388.211 322.077C388.67 322.157 389.113 322.325 389.539 322.581C389.97 322.837 390.327 323.223 390.611 323.739C390.895 324.255 391.037 324.946 391.037 325.812V333H389.361V331.523H389.276C389.162 331.759 388.973 332.013 388.708 332.283C388.443 332.553 388.09 332.782 387.65 332.972C387.209 333.161 386.672 333.256 386.037 333.256ZM386.293 331.75C386.956 331.75 387.515 331.62 387.969 331.359C388.428 331.099 388.774 330.763 389.006 330.351C389.243 329.939 389.361 329.506 389.361 329.051V327.517C389.29 327.602 389.134 327.68 388.892 327.751C388.656 327.818 388.381 327.877 388.069 327.929C387.761 327.976 387.46 328.019 387.167 328.057C386.878 328.09 386.643 328.118 386.463 328.142C386.028 328.199 385.621 328.291 385.242 328.419C384.868 328.542 384.565 328.729 384.333 328.98C384.105 329.226 383.992 329.562 383.992 329.989C383.992 330.571 384.207 331.011 384.638 331.31C385.074 331.603 385.625 331.75 386.293 331.75ZM398.5 337.318C397.69 337.318 396.994 337.214 396.412 337.006C395.83 336.802 395.344 336.532 394.956 336.196C394.572 335.865 394.267 335.509 394.04 335.131L395.375 334.193C395.527 334.392 395.718 334.619 395.95 334.875C396.182 335.135 396.5 335.36 396.902 335.55C397.309 335.744 397.842 335.841 398.5 335.841C399.381 335.841 400.107 335.628 400.68 335.202C401.253 334.776 401.54 334.108 401.54 333.199V330.983H401.398C401.275 331.182 401.099 331.428 400.872 331.722C400.65 332.01 400.328 332.268 399.906 332.496C399.49 332.718 398.926 332.83 398.216 332.83C397.335 332.83 396.545 332.621 395.844 332.205C395.148 331.788 394.596 331.182 394.189 330.386C393.786 329.591 393.585 328.625 393.585 327.489C393.585 326.371 393.782 325.398 394.175 324.57C394.568 323.736 395.115 323.092 395.815 322.638C396.516 322.179 397.326 321.949 398.244 321.949C398.955 321.949 399.518 322.067 399.935 322.304C400.356 322.536 400.678 322.801 400.901 323.099C401.128 323.393 401.303 323.634 401.426 323.824H401.597V322.091H403.216V333.312C403.216 334.25 403.003 335.012 402.577 335.599C402.155 336.191 401.587 336.625 400.872 336.899C400.162 337.179 399.371 337.318 398.5 337.318ZM398.443 331.324C399.116 331.324 399.684 331.17 400.148 330.862C400.612 330.554 400.964 330.112 401.206 329.534C401.447 328.956 401.568 328.265 401.568 327.46C401.568 326.674 401.45 325.981 401.213 325.379C400.976 324.778 400.626 324.307 400.162 323.966C399.698 323.625 399.125 323.455 398.443 323.455C397.733 323.455 397.141 323.634 396.668 323.994C396.199 324.354 395.846 324.837 395.609 325.443C395.377 326.049 395.261 326.722 395.261 327.46C395.261 328.218 395.38 328.888 395.616 329.47C395.858 330.048 396.213 330.502 396.682 330.834C397.155 331.161 397.742 331.324 398.443 331.324ZM410.858 333.227C409.807 333.227 408.9 332.995 408.138 332.531C407.38 332.062 406.795 331.409 406.384 330.571C405.976 329.728 405.773 328.748 405.773 327.631C405.773 326.513 405.976 325.528 406.384 324.676C406.795 323.819 407.368 323.152 408.102 322.673C408.841 322.19 409.703 321.949 410.688 321.949C411.256 321.949 411.817 322.044 412.371 322.233C412.925 322.422 413.429 322.73 413.884 323.156C414.338 323.578 414.7 324.136 414.97 324.832C415.24 325.528 415.375 326.385 415.375 327.403V328.114H406.966V326.665H413.67C413.67 326.049 413.547 325.5 413.301 325.017C413.06 324.534 412.714 324.153 412.264 323.874C411.819 323.594 411.294 323.455 410.688 323.455C410.02 323.455 409.442 323.62 408.955 323.952C408.472 324.278 408.1 324.705 407.839 325.23C407.579 325.756 407.449 326.319 407.449 326.92V327.886C407.449 328.71 407.591 329.409 407.875 329.982C408.164 330.55 408.564 330.983 409.075 331.281C409.587 331.575 410.181 331.722 410.858 331.722C411.298 331.722 411.696 331.66 412.051 331.537C412.411 331.409 412.721 331.22 412.982 330.969C413.242 330.713 413.443 330.396 413.585 330.017L415.205 330.472C415.034 331.021 414.748 331.504 414.345 331.92C413.943 332.332 413.446 332.654 412.854 332.886C412.262 333.114 411.597 333.227 410.858 333.227ZM433.322 318.455H435.084V328.085C435.084 329.08 434.849 329.967 434.381 330.749C433.917 331.525 433.261 332.138 432.413 332.588C431.566 333.033 430.571 333.256 429.43 333.256C428.289 333.256 427.295 333.033 426.447 332.588C425.6 332.138 424.942 331.525 424.473 330.749C424.009 329.967 423.777 329.08 423.777 328.085V318.455H425.538V327.943C425.538 328.653 425.695 329.286 426.007 329.839C426.32 330.389 426.765 330.822 427.342 331.139C427.925 331.452 428.621 331.608 429.43 331.608C430.24 331.608 430.936 331.452 431.518 331.139C432.101 330.822 432.546 330.389 432.854 329.839C433.166 329.286 433.322 328.653 433.322 327.943V318.455ZM438.374 337.091V322.091H439.993V323.824H440.192C440.315 323.634 440.486 323.393 440.703 323.099C440.926 322.801 441.243 322.536 441.655 322.304C442.072 322.067 442.635 321.949 443.346 321.949C444.264 321.949 445.074 322.179 445.775 322.638C446.475 323.097 447.022 323.748 447.415 324.591C447.808 325.434 448.005 326.428 448.005 327.574C448.005 328.729 447.808 329.731 447.415 330.578C447.022 331.421 446.478 332.074 445.782 332.538C445.086 332.998 444.283 333.227 443.374 333.227C442.673 333.227 442.112 333.111 441.691 332.879C441.269 332.643 440.945 332.375 440.718 332.077C440.49 331.774 440.315 331.523 440.192 331.324H440.05V337.091H438.374ZM440.022 327.545C440.022 328.369 440.142 329.096 440.384 329.726C440.625 330.351 440.978 330.841 441.442 331.196C441.906 331.546 442.474 331.722 443.147 331.722C443.847 331.722 444.432 331.537 444.901 331.168C445.374 330.794 445.73 330.292 445.966 329.662C446.208 329.027 446.328 328.322 446.328 327.545C446.328 326.778 446.21 326.087 445.973 325.472C445.741 324.851 445.389 324.361 444.915 324.001C444.446 323.637 443.857 323.455 443.147 323.455C442.465 323.455 441.892 323.627 441.428 323.973C440.964 324.314 440.614 324.792 440.377 325.408C440.14 326.018 440.022 326.731 440.022 327.545ZM452.238 318.455V333H450.561V318.455H452.238ZM459.739 333.227C458.754 333.227 457.89 332.993 457.147 332.524C456.408 332.055 455.831 331.4 455.414 330.557C455.002 329.714 454.796 328.729 454.796 327.602C454.796 326.466 455.002 325.474 455.414 324.626C455.831 323.779 456.408 323.121 457.147 322.652C457.89 322.183 458.754 321.949 459.739 321.949C460.724 321.949 461.586 322.183 462.325 322.652C463.068 323.121 463.646 323.779 464.058 324.626C464.474 325.474 464.683 326.466 464.683 327.602C464.683 328.729 464.474 329.714 464.058 330.557C463.646 331.4 463.068 332.055 462.325 332.524C461.586 332.993 460.724 333.227 459.739 333.227ZM459.739 331.722C460.487 331.722 461.103 331.53 461.586 331.146C462.069 330.763 462.426 330.259 462.658 329.634C462.89 329.009 463.006 328.331 463.006 327.602C463.006 326.873 462.89 326.194 462.658 325.564C462.426 324.934 462.069 324.425 461.586 324.037C461.103 323.649 460.487 323.455 459.739 323.455C458.991 323.455 458.376 323.649 457.893 324.037C457.41 324.425 457.052 324.934 456.82 325.564C456.588 326.194 456.472 326.873 456.472 327.602C456.472 328.331 456.588 329.009 456.82 329.634C457.052 330.259 457.41 330.763 457.893 331.146C458.376 331.53 458.991 331.722 459.739 331.722ZM470.451 333.256C469.76 333.256 469.133 333.125 468.569 332.865C468.006 332.6 467.558 332.219 467.227 331.722C466.895 331.22 466.73 330.614 466.73 329.903C466.73 329.278 466.853 328.772 467.099 328.384C467.345 327.991 467.674 327.683 468.086 327.46C468.498 327.238 468.953 327.072 469.45 326.963C469.952 326.849 470.456 326.759 470.963 326.693C471.626 326.608 472.163 326.544 472.575 326.501C472.992 326.454 473.295 326.376 473.484 326.267C473.678 326.158 473.775 325.969 473.775 325.699V325.642C473.775 324.941 473.583 324.397 473.2 324.009C472.821 323.62 472.246 323.426 471.474 323.426C470.674 323.426 470.047 323.601 469.592 323.952C469.137 324.302 468.818 324.676 468.633 325.074L467.042 324.506C467.326 323.843 467.705 323.327 468.179 322.957C468.657 322.583 469.178 322.323 469.741 322.176C470.309 322.025 470.868 321.949 471.417 321.949C471.768 321.949 472.17 321.991 472.625 322.077C473.084 322.157 473.527 322.325 473.953 322.581C474.384 322.837 474.741 323.223 475.025 323.739C475.309 324.255 475.451 324.946 475.451 325.812V333H473.775V331.523H473.69C473.576 331.759 473.387 332.013 473.122 332.283C472.857 332.553 472.504 332.782 472.064 332.972C471.623 333.161 471.086 333.256 470.451 333.256ZM470.707 331.75C471.37 331.75 471.929 331.62 472.383 331.359C472.842 331.099 473.188 330.763 473.42 330.351C473.657 329.939 473.775 329.506 473.775 329.051V327.517C473.704 327.602 473.548 327.68 473.306 327.751C473.07 327.818 472.795 327.877 472.483 327.929C472.175 327.976 471.874 328.019 471.581 328.057C471.292 328.09 471.057 328.118 470.877 328.142C470.442 328.199 470.035 328.291 469.656 328.419C469.282 328.542 468.979 328.729 468.747 328.98C468.52 329.226 468.406 329.562 468.406 329.989C468.406 330.571 468.621 331.011 469.052 331.31C469.488 331.603 470.039 331.75 470.707 331.75ZM482.63 333.227C481.721 333.227 480.918 332.998 480.222 332.538C479.526 332.074 478.982 331.421 478.589 330.578C478.196 329.731 477.999 328.729 477.999 327.574C477.999 326.428 478.196 325.434 478.589 324.591C478.982 323.748 479.529 323.097 480.229 322.638C480.93 322.179 481.74 321.949 482.658 321.949C483.369 321.949 483.93 322.067 484.342 322.304C484.758 322.536 485.076 322.801 485.293 323.099C485.516 323.393 485.689 323.634 485.812 323.824H485.954V318.455H487.63V333H486.011V331.324H485.812C485.689 331.523 485.513 331.774 485.286 332.077C485.059 332.375 484.735 332.643 484.313 332.879C483.892 333.111 483.331 333.227 482.63 333.227ZM482.857 331.722C483.53 331.722 484.098 331.546 484.562 331.196C485.026 330.841 485.379 330.351 485.62 329.726C485.862 329.096 485.982 328.369 485.982 327.545C485.982 326.731 485.864 326.018 485.627 325.408C485.39 324.792 485.04 324.314 484.576 323.973C484.112 323.627 483.539 323.455 482.857 323.455C482.147 323.455 481.555 323.637 481.082 324.001C480.613 324.361 480.26 324.851 480.023 325.472C479.791 326.087 479.675 326.778 479.675 327.545C479.675 328.322 479.794 329.027 480.031 329.662C480.272 330.292 480.627 330.794 481.096 331.168C481.569 331.537 482.156 331.722 482.857 331.722ZM495.506 333.227C494.455 333.227 493.549 332.995 492.786 332.531C492.029 332.062 491.444 331.409 491.032 330.571C490.625 329.728 490.421 328.748 490.421 327.631C490.421 326.513 490.625 325.528 491.032 324.676C491.444 323.819 492.017 323.152 492.751 322.673C493.489 322.19 494.351 321.949 495.336 321.949C495.904 321.949 496.465 322.044 497.019 322.233C497.573 322.422 498.077 322.73 498.532 323.156C498.987 323.578 499.349 324.136 499.619 324.832C499.888 325.528 500.023 326.385 500.023 327.403V328.114H491.614V326.665H498.319C498.319 326.049 498.196 325.5 497.95 325.017C497.708 324.534 497.362 324.153 496.913 323.874C496.468 323.594 495.942 323.455 495.336 323.455C494.668 323.455 494.091 323.62 493.603 323.952C493.12 324.278 492.748 324.705 492.488 325.23C492.228 325.756 492.097 326.319 492.097 326.92V327.886C492.097 328.71 492.239 329.409 492.523 329.982C492.812 330.55 493.212 330.983 493.724 331.281C494.235 331.575 494.829 331.722 495.506 331.722C495.947 331.722 496.344 331.66 496.7 331.537C497.059 331.409 497.37 331.22 497.63 330.969C497.89 330.713 498.092 330.396 498.234 330.017L499.853 330.472C499.683 331.021 499.396 331.504 498.994 331.92C498.591 332.332 498.094 332.654 497.502 332.886C496.91 333.114 496.245 333.227 495.506 333.227ZM506.692 333.227C505.783 333.227 504.981 332.998 504.285 332.538C503.589 332.074 503.044 331.421 502.651 330.578C502.258 329.731 502.062 328.729 502.062 327.574C502.062 326.428 502.258 325.434 502.651 324.591C503.044 323.748 503.591 323.097 504.292 322.638C504.993 322.179 505.802 321.949 506.721 321.949C507.431 321.949 507.992 322.067 508.404 322.304C508.821 322.536 509.138 322.801 509.356 323.099C509.578 323.393 509.751 323.634 509.874 323.824H510.016V318.455H511.692V333H510.073V331.324H509.874C509.751 331.523 509.576 331.774 509.349 332.077C509.121 332.375 508.797 332.643 508.376 332.879C507.954 333.111 507.393 333.227 506.692 333.227ZM506.92 331.722C507.592 331.722 508.16 331.546 508.624 331.196C509.088 330.841 509.441 330.351 509.683 329.726C509.924 329.096 510.045 328.369 510.045 327.545C510.045 326.731 509.926 326.018 509.69 325.408C509.453 324.792 509.103 324.314 508.638 323.973C508.174 323.627 507.602 323.455 506.92 323.455C506.21 323.455 505.618 323.637 505.144 324.001C504.675 324.361 504.323 324.851 504.086 325.472C503.854 326.087 503.738 326.778 503.738 327.545C503.738 328.322 503.856 329.027 504.093 329.662C504.335 330.292 504.69 330.794 505.158 331.168C505.632 331.537 506.219 331.722 506.92 331.722Z" fill="#ABB5C0"/>
<path d="M496.057 258.606L497.765 260.318V257.9V165.965C497.765 165.247 497.48 164.558 496.973 164.05C496.466 163.542 495.777 163.256 495.059 163.256H344.941C344.223 163.256 343.534 163.542 343.027 164.05C342.52 164.558 342.235 165.247 342.235 165.965V249.892V252.309L343.943 250.598L381.558 212.908L381.558 212.908C382.574 211.89 383.78 211.082 385.108 210.531C386.435 209.98 387.857 209.697 389.294 209.697C390.731 209.697 392.153 209.98 393.481 210.531C394.808 211.082 396.014 211.89 397.03 212.908L435.762 251.726L436.47 252.436L437.178 251.726L455.448 233.42L454.74 232.713L455.448 233.42C456.464 232.402 457.67 231.594 458.998 231.043C460.325 230.492 461.748 230.208 463.184 230.208C464.621 230.208 466.044 230.492 467.371 231.043C468.698 231.594 469.905 232.402 470.921 233.42L471.629 232.713L470.921 233.42L496.057 258.606ZM342.527 263.689L342.235 263.982V264.395V289.035C342.235 289.753 342.52 290.442 343.027 290.95C343.534 291.458 344.223 291.744 344.941 291.744H461.649H464.06L462.357 290.038L391.216 218.754C391.215 218.754 391.215 218.753 391.214 218.752C390.963 218.499 390.664 218.298 390.335 218.161C390.005 218.023 389.652 217.952 389.294 217.952C388.937 217.952 388.583 218.023 388.253 218.161C387.924 218.298 387.625 218.499 387.374 218.752C387.373 218.753 387.373 218.754 387.372 218.754L342.527 263.689ZM475.416 291.451L475.709 291.744H476.124H495.05C495.406 291.75 495.76 291.685 496.092 291.553C496.426 291.42 496.731 291.222 496.988 290.969C497.245 290.717 497.449 290.416 497.588 290.084C497.727 289.751 497.799 289.395 497.799 289.035V272.438V272.024L497.507 271.731L465.095 239.255C464.844 239.003 464.546 238.803 464.217 238.666C463.888 238.53 463.536 238.459 463.18 238.459C462.824 238.459 462.472 238.53 462.143 238.666C461.815 238.803 461.516 239.003 461.265 239.255L443.004 257.561L442.299 258.268L443.004 258.974L475.416 291.451ZM344.941 155H495.059C497.96 155 500.743 156.155 502.795 158.211C504.847 160.267 506 163.056 506 165.965V289.035C506 291.944 504.847 294.733 502.795 296.789C500.743 298.845 497.96 300 495.059 300H344.941C342.04 300 339.257 298.845 337.205 296.789C335.153 294.733 334 291.944 334 289.035V165.965C334 163.056 335.153 160.267 337.205 158.211C339.257 156.155 342.04 155 344.941 155ZM436.353 203.57C436.353 202.077 436.795 200.617 437.622 199.376C438.45 198.135 439.626 197.168 441.002 196.597C442.377 196.027 443.891 195.877 445.351 196.168C446.811 196.459 448.153 197.178 449.206 198.233C450.259 199.288 450.976 200.633 451.267 202.097C451.558 203.561 451.408 205.079 450.838 206.458C450.268 207.838 449.303 209.016 448.065 209.845C446.827 210.674 445.371 211.116 443.882 211.116C441.886 211.116 439.971 210.322 438.559 208.907C437.147 207.492 436.353 205.572 436.353 203.57Z" fill="#CED3D9" stroke="#F2F4F6" stroke-width="2"/>
</svg>
