<svg width="35" height="41" viewBox="0 0 35 41" fill="none" xmlns="http://www.w3.org/2000/svg">
<path d="M14.5833 21.2771L10.8063 17.5L8.75001 19.5562L14.5833 25.3896L26.25 13.7229L24.1938 11.6667L14.5833 21.2771Z" fill="#7E1946"/>
<path d="M17.5 40.8333L8.49335 36.031C5.9255 34.6653 3.77812 32.6259 2.28177 30.1319C0.785417 27.6379 -0.00339829 24.7835 1.10046e-05 21.875V2.91667C1.10046e-05 2.14312 0.307302 1.40125 0.854283 0.854272C1.40126 0.307291 2.14313 0 2.91668 0H32.0833C32.8569 0 33.5988 0.307291 34.1457 0.854272C34.6927 1.40125 35 2.14312 35 2.91667V21.875C35.0034 24.7835 34.2146 27.6379 32.7183 30.1319C31.2219 32.6259 29.0745 34.6653 26.5067 36.031L17.5 40.8333ZM2.91668 2.91667V21.875C2.91505 24.2545 3.56108 26.5897 4.7855 28.63C6.00992 30.6704 7.76656 32.339 9.86709 33.4571L17.5 37.5273L25.1329 33.4585C27.2337 32.3404 28.9905 30.6715 30.2149 28.6309C31.4393 26.5902 32.0852 24.2548 32.0833 21.875V2.91667H2.91668Z" fill="#7E1946"/>
</svg>
