<svg width="44" height="41" viewBox="0 0 44 41" fill="none" xmlns="http://www.w3.org/2000/svg">
<path d="M14.4999 39.9265C15.4319 39.9265 16.1873 39.1343 16.1873 38.1571C16.1873 37.1799 15.4319 36.3877 14.4999 36.3877C13.568 36.3877 12.8125 37.1799 12.8125 38.1571C12.8125 39.1343 13.568 39.9265 14.4999 39.9265Z" stroke="#7E1946" stroke-width="2" stroke-linecap="round" stroke-linejoin="round"/>
<path d="M38.1239 39.9265C39.0559 39.9265 39.8114 39.1343 39.8114 38.1571C39.8114 37.1799 39.0559 36.3877 38.1239 36.3877C37.192 36.3877 36.4365 37.1799 36.4365 38.1571C36.4365 39.1343 37.192 39.9265 38.1239 39.9265Z" stroke="#7E1946" stroke-width="2" stroke-linecap="round" stroke-linejoin="round"/>
<path d="M1 1H7.74967L12.8119 31.08H39.8106" stroke="#7E1946" stroke-width="2" stroke-linecap="round" stroke-linejoin="round"/>
<path d="M12.8123 24.0027H39.1192C39.3143 24.0028 39.5034 23.9321 39.6544 23.8024C39.8053 23.6728 39.9088 23.4923 39.9471 23.2916L42.9844 7.36692C43.0089 7.23851 43.0059 7.106 42.9757 6.97895C42.9454 6.85189 42.8886 6.73347 42.8094 6.63221C42.7302 6.53096 42.6306 6.44941 42.5177 6.39345C42.4048 6.33748 42.2814 6.3085 42.1565 6.30859H9.4375" stroke="#7E1946" stroke-width="2" stroke-linecap="round" stroke-linejoin="round"/>
</svg>
