<svg width="47" height="49" viewBox="0 0 47 49" fill="none" xmlns="http://www.w3.org/2000/svg">
<g filter="url(#filter0_d_21_237)">
<path d="M20.7996 10.5034C20.9749 10.7186 21.0822 10.9817 21.1079 11.2588C21.1335 11.5359 21.0763 11.8144 20.9436 12.0586C19.9024 13.9823 19.3589 16.139 19.3633 18.3299C19.3633 25.6181 25.2635 31.5197 32.5352 31.5197C33.4856 31.5185 34.4053 31.4218 35.2945 31.2297C35.5665 31.1711 35.8496 31.1941 36.1088 31.2959C36.3679 31.3977 36.5917 31.5738 36.7525 31.8024C36.9225 32.0403 37.0093 32.3284 36.9992 32.6213C36.9891 32.9143 36.8827 33.1956 36.6967 33.421C35.2849 35.1672 33.5039 36.5741 31.4837 37.5392C29.4634 38.5044 27.2547 39.0034 25.0187 39C16.721 39 10 32.2683 10 23.9741C10 17.7318 13.8051 12.3776 19.2229 10.1083C19.4927 9.99284 19.7924 9.96895 20.0769 10.0402C20.3614 10.1115 20.615 10.2741 20.7996 10.5034Z" fill="white"/>
</g>
<defs>
<filter id="filter0_d_21_237" x="0" y="0" width="47" height="49" filterUnits="userSpaceOnUse" color-interpolation-filters="sRGB">
<feFlood flood-opacity="0" result="BackgroundImageFix"/>
<feColorMatrix in="SourceAlpha" type="matrix" values="0 0 0 0 0 0 0 0 0 0 0 0 0 0 0 0 0 0 127 0" result="hardAlpha"/>
<feOffset/>
<feGaussianBlur stdDeviation="5"/>
<feComposite in2="hardAlpha" operator="out"/>
<feColorMatrix type="matrix" values="0 0 0 0 1 0 0 0 0 1 0 0 0 0 1 0 0 0 0.25 0"/>
<feBlend mode="normal" in2="BackgroundImageFix" result="effect1_dropShadow_21_237"/>
<feBlend mode="normal" in="SourceGraphic" in2="effect1_dropShadow_21_237" result="shape"/>
</filter>
</defs>
</svg>
