<svg width="31" height="41" viewBox="0 0 31 41" fill="none" xmlns="http://www.w3.org/2000/svg">
<path d="M3.57829 41C2.55824 41 1.70721 40.6492 1.02521 39.9477C0.343214 39.2461 0.00147619 38.3707 0 37.3214V12.7897C0 11.7419 0.341738 10.8673 1.02521 10.1657C1.70869 9.46416 2.55971 9.11263 3.57829 9.11111H7.75V7.97222C7.75 5.75822 8.50359 3.87602 10.0108 2.32561C11.518 0.775203 13.3477 0 15.5 0C17.6523 0 19.482 0.775203 20.9892 2.32561C22.4964 3.87602 23.25 5.75822 23.25 7.97222V9.11111H27.4239C28.4425 9.11111 29.2928 9.46265 29.9748 10.1657C30.6568 10.8688 30.9985 11.7442 31 12.792V37.3214C31 38.3692 30.6583 39.2446 29.9748 39.9477C29.2913 40.6507 28.441 41.0015 27.4239 41H3.57829ZM3.57829 38.7222H27.4239C27.7635 38.7222 28.0757 38.5764 28.3606 38.2849C28.6455 37.9933 28.7872 37.6714 28.7857 37.3191V12.792C28.7857 12.4412 28.644 12.1193 28.3606 11.8262C28.0771 11.5331 27.7642 11.3874 27.4217 11.3889H23.25V17.0833C23.25 17.4083 23.1445 17.6793 22.9334 17.8965C22.7223 18.1136 22.4588 18.2222 22.1429 18.2222C21.827 18.2222 21.5634 18.1136 21.3524 17.8965C21.1413 17.6793 21.0357 17.4083 21.0357 17.0833V11.3889H9.96428V17.0833C9.96428 17.4083 9.85874 17.6793 9.64764 17.8965C9.43655 18.1136 9.17305 18.2222 8.85714 18.2222C8.54124 18.2222 8.27774 18.1136 8.06664 17.8965C7.85555 17.6793 7.75 17.4083 7.75 17.0833V11.3889H3.57829C3.23729 11.3889 2.92433 11.5347 2.63943 11.8262C2.35452 12.1178 2.21281 12.4397 2.21429 12.792V37.3214C2.21429 37.6706 2.356 37.9918 2.63943 38.2849C2.92286 38.578 3.23507 38.7237 3.57607 38.7222M9.96428 9.11111H21.0357V7.97222C21.0357 6.36867 20.5028 5.0187 19.437 3.92233C18.3712 2.82596 17.0589 2.27778 15.5 2.27778C13.9411 2.27778 12.6288 2.82596 11.563 3.92233C10.4972 5.0187 9.96428 6.36867 9.96428 7.97222V9.11111Z" fill="#7E1946"/>
</svg>
