<svg width="36" height="36" viewBox="0 0 36 36" fill="none" xmlns="http://www.w3.org/2000/svg">
<g clip-path="url(#clip0_38_359)">
<path d="M14 2C14 2 14 0 16 0C18 0 18 2 18 2V4C18 4 18 6 16 6C14 6 14 4 14 4V2ZM30 14C30 14 32 14 32 16C32 18 30 18 30 18H28C28 18 26 18 26 16C26 14 28 14 28 14H30ZM4 14C4 14 6 14 6 16C6 18 4 18 4 18H2C2 18 0 18 0 16C0 14 2 14 2 14H4ZM7.872 6.043C7.872 6.043 9.286 7.457 7.872 8.871C6.458 10.285 5.044 8.871 5.044 8.871L3.629 7.458C3.629 7.458 2.215 6.044 3.629 4.629C5.044 3.215 6.458 4.629 6.458 4.629L7.872 6.043ZM26.957 8.871C26.957 8.871 25.543 10.285 24.129 8.871C22.715 7.457 24.129 6.043 24.129 6.043L25.543 4.629C25.543 4.629 26.957 3.215 28.371 4.629C29.785 6.043 28.371 7.457 28.371 7.457L26.957 8.871Z" fill="#FFD53E"/>
<path d="M16 25C20.9706 25 25 20.9706 25 16C25 11.0294 20.9706 7 16 7C11.0294 7 7 11.0294 7 16C7 20.9706 11.0294 25 16 25Z" fill="#FFD53E"/>
<path d="M25.3179 20.9774L25.1589 20.5217C24.7491 19.3473 23.9843 18.3294 22.9703 17.6088C21.9564 16.8883 20.7436 16.5008 19.4998 16.5L25.3179 20.9774ZM25.3179 20.9774L25.7789 20.8346M25.3179 20.9774L25.7789 20.8346M25.7789 20.8346C26.4807 20.6173 27.2258 20.5 28 20.5C29.9891 20.5 31.8968 21.2902 33.3033 22.6967C34.7098 24.1032 35.5 26.0109 35.5 28C35.5 29.9891 34.7098 31.8968 33.3033 33.3033C31.8968 34.7098 29.9891 35.5 28 35.5H5C2.51414 35.5 0.5 33.4859 0.5 31C0.5 28.5154 2.51214 26.502 4.99629 26.5C5.40305 26.5063 5.80706 26.5681 6.19717 26.6835L7.19797 26.9795L6.80152 26.0141C6.60889 25.545 6.5 25.0353 6.5 24.5C6.5 23.4391 6.92143 22.4217 7.67157 21.6716C8.42153 20.9216 9.43863 20.5002 10.4992 20.5C11.3664 20.5027 12.2086 20.7899 12.8967 21.3177L13.5011 21.7814M25.7789 20.8346L13.5011 21.7814M13.5011 21.7814L13.686 21.0424M13.5011 21.7814L13.686 21.0424M13.686 21.0424C14.3389 18.4336 16.6917 16.5001 19.4997 16.5L13.686 21.0424Z" fill="white" stroke="#DEDEDE"/>
</g>
<defs>
<clipPath id="clip0_38_359">
<rect width="36" height="36" fill="white"/>
</clipPath>
</defs>
</svg>
