<svg width="41" height="41" viewBox="0 0 41 41" fill="none" xmlns="http://www.w3.org/2000/svg">
<path d="M40.9409 33.2833C40.8435 32.9914 40.6341 32.7503 40.3589 32.6128C40.0838 32.4754 39.7653 32.4529 39.4735 32.5503L35.7808 33.7784L30.0426 22.3019C29.947 22.1104 29.8004 21.9491 29.6188 21.8357C29.4373 21.7224 29.228 21.6615 29.014 21.6598H13.1605V16.2542H24.374C24.6816 16.2542 24.9767 16.132 25.1942 15.9144C25.4118 15.6967 25.534 15.4016 25.534 15.0938C25.534 14.7861 25.4118 14.4909 25.1942 14.2733C24.9767 14.0557 24.6816 13.9334 24.374 13.9334H13.1605V11.4869C14.5688 11.1993 15.8202 10.3989 16.6721 9.2408C17.524 8.08271 17.9156 6.64945 17.7712 5.21889C17.6267 3.78834 16.9564 2.4624 15.8902 1.49814C14.824 0.533882 13.4378 0 12.0005 0C10.5631 0 9.17696 0.533882 8.11075 1.49814C7.04454 2.4624 6.37422 3.78834 6.22975 5.21889C6.08529 6.64945 6.47696 8.08271 7.32885 9.2408C8.18073 10.3989 9.43214 11.1993 10.8404 11.4869V14.1945C7.55138 14.8626 4.62781 16.7294 2.63728 19.4325C0.646739 22.1356 -0.268744 25.4821 0.0685482 28.8224C0.40584 32.1628 1.97184 35.2586 4.46255 37.5089C6.95326 39.7591 10.191 41.0034 13.5472 41C19.8538 41 25.534 36.7297 27.0439 30.8464C27.082 30.6988 27.0907 30.5452 27.0694 30.3943C27.0481 30.2434 26.9974 30.0982 26.92 29.9669C26.8426 29.8356 26.7402 29.7209 26.6184 29.6292C26.4967 29.5375 26.3582 29.4707 26.2107 29.4326C26.0631 29.3945 25.9096 29.3859 25.7587 29.4071C25.6079 29.4284 25.4627 29.4792 25.3314 29.5566C25.2002 29.634 25.0855 29.7365 24.9939 29.8583C24.9022 29.98 24.8355 30.1186 24.7974 30.2662C23.5426 35.1419 18.804 38.6792 13.5472 38.6792C10.81 38.6782 8.16762 37.6758 6.11814 35.8608C4.06866 34.0459 2.75358 31.5437 2.42075 28.8259C2.08791 26.108 2.76031 23.3623 4.31121 21.1061C5.86212 18.8499 8.18442 17.2391 10.8404 16.5772V22.8202C10.8404 23.128 10.9627 23.4231 11.1802 23.6408C11.3978 23.8584 11.6928 23.9806 12.0005 23.9806H28.2968L34.1626 35.7163C34.2878 35.966 34.4988 36.1623 34.7571 36.2689C35.0153 36.3754 35.3033 36.3852 35.5681 36.2965L40.2082 34.7492C40.4995 34.6517 40.7402 34.4426 40.8775 34.1678C41.0149 33.893 41.0377 33.5749 40.9409 33.2833ZM8.52041 5.80087C8.52041 5.11235 8.72452 4.43929 9.10691 3.8668C9.4893 3.29432 10.0328 2.84812 10.6687 2.58463C11.3046 2.32114 12.0043 2.2522 12.6794 2.38653C13.3545 2.52085 13.9745 2.85241 14.4612 3.33927C14.9479 3.82613 15.2794 4.44642 15.4136 5.12171C15.5479 5.79701 15.479 6.49697 15.2156 7.13308C14.9522 7.76919 14.5062 8.31289 13.9339 8.69541C13.3616 9.07793 12.6888 9.2821 12.0005 9.2821C11.0775 9.2821 10.1923 8.91533 9.5397 8.26247C8.88706 7.60961 8.52041 6.72415 8.52041 5.80087Z" fill="#7E1946"/>
</svg>
