<svg width="14" height="20" viewBox="0 0 50 33" fill="none" xmlns="http://www.w3.org/2000/svg"><path d="M25 33C24.0143 33 23.1812 32.6704 22.5007 32.0111C21.8202 31.3518 21.4799 30.5447 21.4799 29.5898C21.4799 28.6349 21.8202 27.8271 22.5007 27.1663C23.1812 26.5055 24.0143 26.1759 25 26.1774C25.9857 26.1789 26.8188 26.5085 27.4993 27.1663C28.1798 27.8241 28.5201 28.6312 28.5201 29.5876C28.5201 30.544 28.1798 31.3518 27.4993 32.0111C26.8188 32.6704 25.9857 33 25 33ZM12.0686 21.7517L9.72718 19.459C11.7138 17.5344 14.0056 16.0266 16.6026 14.9357C19.1995 13.8448 22.001 13.3001 25.0069 13.3016C28.0128 13.303 30.8119 13.85 33.4043 14.9424C35.9967 16.0347 38.2862 17.5484 40.2728 19.4834L37.9314 21.7517C36.253 20.1257 34.3076 18.8507 32.0951 17.9268C29.8827 17.003 27.5176 16.541 25 16.541C22.4824 16.541 20.1173 17.003 17.9049 17.9268C15.6924 18.8507 13.747 20.1257 12.0686 21.7517ZM2.34139 12.3282L0 10.0599C3.18746 6.95567 6.90668 4.50186 11.1576 2.69846C15.4086 0.895064 20.0227 -0.00441827 25 1.6317e-05C29.9773 0.0044509 34.5914 0.905411 38.8424 2.7029C43.0933 4.50038 46.8125 6.95345 50 10.0621L47.6586 12.3282C44.7214 9.48264 41.3172 7.25648 37.4462 5.64968C33.5752 4.04288 29.4264 3.23874 25 3.23727C20.5736 3.23579 16.4256 4.03993 12.5561 5.64968C8.68656 7.25944 5.28167 9.4856 2.34139 12.3282Z" fill="#7E1946" /></svg>